# xmcd CD database file
#
# Track frame offsets:
#	150
#	22137
#	38195
#	55010
#	72422
#	89562
#	110527
#	133785
#	152135
#	173810
#	188207
#	205667
#	222902
#
# Disc length: 3258 seconds
#
# Revision: 4
# Processed by: cddbd v1.5.1PL2 Copyright (c) Steve Scherf et al.
# Submitted via: CDex 1.51
#
DISCID=be0cb80d
DTITLE=Carolyn Dawn Johnson - Room With A View
DYEAR=2001
DGENRE=Country
TTITLE0=Georgia
TTITLE1=Just Another Girl
TTITLE2=I'll Think Of You That Way
TTITLE3=Love Is Always Worth The Ache
TTITLE4=Complicated
TTITLE5=I Don't Want You To Go
TTITLE6=You Are
TTITLE7=Materpiece
TTITLE8=Little Bit Of This, Little Bit Of That
TTITLE9=One Day Closer To You
TTITLE10=Room With A View
TTITLE11=Tumble And Roll
TTITLE12=Not Enough To Stay
EXTD=Produce by Paul Worley and Carolyn Dawn Johnson\n YEAR: 2001
EXTT0=
EXTT1=
EXTT2=
EXTT3=
EXTT4=
EXTT5=
EXTT6=
EXTT7=
EXTT8=
EXTT9=
EXTT10=
EXTT11=
EXTT12=
PLAYORDER=
